<?xml version="1.0" encoding="UTF-8"?>
<!DOCTYPE svg PUBLIC "-//W3C//DTD SVG 1.1//EN" "http://www.w3.org/Graphics/SVG/1.1/DTD/svg11.dtd">
<svg xmlns="http://www.w3.org/2000/svg" version="1.1" width="477px" height="241px" style="shape-rendering:geometricPrecision; text-rendering:geometricPrecision; image-rendering:optimizeQuality; fill-rule:evenodd; clip-rule:evenodd" xmlns:xlink="http://www.w3.org/1999/xlink">
<g><path style="opacity:0.991" fill="#fdfdfd" d="M 68.5,-0.5 C 74.5,-0.5 80.5,-0.5 86.5,-0.5C 88.0913,0.218865 89.5913,1.21886 91,2.5C 99.4335,36.1019 105.6,70.1019 109.5,104.5C 103.214,105.925 97.3804,104.925 92,101.5C 89.9507,91.8705 88.1174,82.2039 86.5,72.5C 80.5,72.5 74.5,72.5 68.5,72.5C 67.3732,82.9275 65.7065,93.2608 63.5,103.5C 62.9747,104.192 62.3081,104.692 61.5,105C 56.4424,105.661 51.4424,105.328 46.5,104C 45.5,103 44.5,102 43.5,101C 49.5948,68.2682 55.4281,35.4348 61,2.5C 63.4799,1.1885 65.9799,0.188499 68.5,-0.5 Z M 76.5,20.5 C 79.033,31.6703 81.3663,43.0036 83.5,54.5C 79.5546,55.4909 75.5546,55.8242 71.5,55.5C 73.4471,43.8705 75.1137,32.2038 76.5,20.5 Z"/></g>
<g><path style="opacity:0.998" fill="#fdfcfd" d="M 124.5,-0.5 C 127.167,-0.5 129.833,-0.5 132.5,-0.5C 134.448,0.131244 136.281,1.13124 138,2.5C 139.24,16.4782 140.073,30.4782 140.5,44.5C 147.5,44.5 154.5,44.5 161.5,44.5C 161.333,30.496 161.5,16.496 162,2.5C 162.698,1.30943 163.531,0.309426 164.5,-0.5C 167.5,-0.5 170.5,-0.5 173.5,-0.5C 176.934,0.447055 178.767,2.78039 179,6.5C 181.338,38.7966 182.005,71.1299 181,103.5C 175.976,105.76 170.809,105.926 165.5,104C 164.069,103.535 162.903,102.701 162,101.5C 161.5,88.1708 161.333,74.8375 161.5,61.5C 154.5,61.5 147.5,61.5 140.5,61.5C 140.5,75.8333 140.5,90.1667 140.5,104.5C 135.491,105.67 130.491,105.503 125.5,104C 124.069,103.535 122.903,102.701 122,101.5C 121.333,68.1667 121.333,34.8333 122,1.5C 122.995,0.934056 123.828,0.267389 124.5,-0.5 Z"/></g>
<g><path style="opacity:0.991" fill="#fdfdfd" d="M 216.5,-0.5 C 222.5,-0.5 228.5,-0.5 234.5,-0.5C 238.739,1.25169 240.906,4.58502 241,9.5C 248.413,40.817 253.913,72.317 257.5,104C 252.087,105.658 246.754,105.324 241.5,103C 239.996,101.509 239.163,99.676 239,97.5C 237.667,89.5 236.333,81.5 235,73.5C 228.924,72.5236 222.758,72.1903 216.5,72.5C 215.514,82.9023 214.014,93.2356 212,103.5C 205.833,106.105 199.666,105.938 193.5,103C 192.941,102.275 192.608,101.442 192.5,100.5C 198,68.168 203.5,35.8346 209,3.5C 209.308,2.69194 209.808,2.02527 210.5,1.5C 212.657,0.94955 214.657,0.282883 216.5,-0.5 Z M 224.5,21.5 C 227.578,32.5511 229.911,43.8845 231.5,55.5C 227.445,55.8242 223.445,55.4909 219.5,54.5C 221.708,43.587 223.374,32.587 224.5,21.5 Z"/></g>
<g><path style="opacity:0.991" fill="#fdfdfd" d="M 17.5,-0.5 C 20.1667,-0.5 22.8333,-0.5 25.5,-0.5C 27.7105,0.201324 29.5438,1.53466 31,3.5C 33.2753,34.131 33.9419,64.7977 33,95.5C 32.9277,105.275 30.9277,114.608 27,123.5C 18.9013,132.329 9.73464,134.329 -0.5,129.5C -0.5,126.5 -0.5,123.5 -0.5,120.5C 2.96186,118.375 6.46186,116.042 10,113.5C 10.9734,111.608 11.6401,109.608 12,107.5C 13.2856,72.5295 13.9522,37.5295 14,2.5C 14.985,1.18586 16.1516,0.185857 17.5,-0.5 Z"/></g>
<g><path style="opacity:0.004" fill="#000000" d="M 187.5,1.5 C 188.833,2.16667 188.833,2.16667 187.5,1.5 Z"/></g>
<g><path style="opacity:0.004" fill="#000000" d="M 427.5,9.5 C 428.833,10.1667 428.833,10.1667 427.5,9.5 Z"/></g>
<g><path style="opacity:0.004" fill="#000000" d="M 203.5,17.5 C 204.833,18.1667 204.833,18.1667 203.5,17.5 Z"/></g>
<g><path style="opacity:0.004" fill="#000000" d="M 195.5,21.5 C 196.833,22.1667 196.833,22.1667 195.5,21.5 Z"/></g>
<g><path style="opacity:0.004" fill="#000000" d="M 100.5,23.5 C 101.833,24.1667 101.833,24.1667 100.5,23.5 Z"/></g>
<g><path style="opacity:0.004" fill="#000000" d="M 52.5,27.5 C 53.8333,28.1667 53.8333,28.1667 52.5,27.5 Z"/></g>
<g><path style="opacity:0.004" fill="#000000" d="M 462.5,28.5 C 463.833,29.1667 463.833,29.1667 462.5,28.5 Z"/></g>
<g><path style="opacity:0.004" fill="#000000" d="M 150.5,39.5 C 151.833,40.1667 151.833,40.1667 150.5,39.5 Z"/></g>
<g><path style="opacity:0.004" fill="#000000" d="M 8.5,46.5 C 9.83333,47.1667 9.83333,47.1667 8.5,46.5 Z"/></g>
<g><path style="opacity:0.004" fill="#000000" d="M 46.5,48.5 C 47.8333,49.1667 47.8333,49.1667 46.5,48.5 Z"/></g>
<g><path style="opacity:0.004" fill="#000000" d="M 448.5,56.5 C 449.833,57.1667 449.833,57.1667 448.5,56.5 Z"/></g>
<g><path style="opacity:0.004" fill="#000000" d="M 154.5,62.5 C 155.833,63.1667 155.833,63.1667 154.5,62.5 Z"/></g>
<g><path style="opacity:0.004" fill="#000000" d="M 11.5,63.5 C 12.8333,64.1667 12.8333,64.1667 11.5,63.5 Z"/></g>
<g><path style="opacity:0.004" fill="#000000" d="M 355.5,63.5 C 356.833,64.1667 356.833,64.1667 355.5,63.5 Z"/></g>
<g><path style="opacity:0.004" fill="#000000" d="M 336.5,85.5 C 337.833,86.1667 337.833,86.1667 336.5,85.5 Z"/></g>
<g><path style="opacity:0.004" fill="#000000" d="M 400.5,99.5 C 401.833,100.167 401.833,100.167 400.5,99.5 Z"/></g>
<g><path style="opacity:0.004" fill="#000000" d="M 163.5,106.5 C 164.833,107.167 164.833,107.167 163.5,106.5 Z"/></g>
<g><path style="opacity:1" fill="#fd3f4b" d="M 69.5,230.5 C 68.3747,232.129 67.0414,233.629 65.5,235C 61.7415,236.879 58.0748,238.713 54.5,240.5C 46.8333,240.5 39.1667,240.5 31.5,240.5C 28.5919,239.046 25.5919,237.546 22.5,236C 19.2832,234.285 16.9498,231.785 15.5,228.5C 15.2155,226.123 15.2155,223.956 15.5,222C 13.3517,219.925 13.0183,217.592 14.5,215C 13.552,214.517 12.552,214.351 11.5,214.5C 10.0857,207.928 9.41908,201.261 9.5,194.5C 15.1764,194.334 20.8431,194.501 26.5,195C 26.4829,198.633 26.6496,202.467 27,206.5C 27.4186,205.328 28.0853,204.328 29,203.5C 28.9064,207.633 29.7397,211.299 31.5,214.5C 40.4999,225.498 48.4999,224.832 55.5,212.5C 57.493,179.85 58.1596,146.85 57.5,113.5C 63.5,113.5 69.5,113.5 75.5,113.5C 75.6667,148.502 75.5,183.502 75,218.5C 73.9563,219.623 73.2896,220.956 73,222.5C 71.9326,223.191 70.7659,223.691 69.5,224C 68.2315,225.707 68.2315,227.874 69.5,230.5 Z"/></g>
<g><path style="opacity:1" fill="#df4750" d="M 56.5,111.5 C 62.979,112.491 69.6457,112.824 76.5,112.5C 76.5,146.5 76.5,180.5 76.5,214.5C 76.3175,220.857 73.9841,226.191 69.5,230.5C 68.2315,227.874 68.2315,225.707 69.5,224C 70.7659,223.691 71.9326,223.191 73,222.5C 73.2896,220.956 73.9563,219.623 75,218.5C 75.5,183.502 75.6667,148.502 75.5,113.5C 69.5,113.5 63.5,113.5 57.5,113.5C 58.1596,146.85 57.493,179.85 55.5,212.5C 55.1684,178.663 55.5017,144.996 56.5,111.5 Z"/></g>
<g><path style="opacity:1" fill="#f3434f" d="M 223.5,144.5 C 224.291,141.583 224.291,138.75 223.5,136C 225.638,133.717 226.638,130.883 226.5,127.5C 226.729,124.222 226.063,121.222 224.5,118.5C 228.172,117.769 228.839,116.269 226.5,114C 223.518,113.502 220.518,113.335 217.5,113.5C 216.592,115.891 216.426,118.224 217,120.5C 213.023,121.988 211.023,124.988 211,129.5C 210.184,130.823 209.017,131.489 207.5,131.5C 210.169,124.663 213.503,118.163 217.5,112C 225.159,111.5 232.826,111.334 240.5,111.5C 235.616,122.935 229.949,133.935 223.5,144.5 Z"/></g>
<g><path style="opacity:1" fill="#d94952" d="M 429.5,212.5 C 427.507,179.85 426.84,146.85 427.5,113.5C 420.833,113.5 414.167,113.5 407.5,113.5C 407.248,147.178 407.582,180.844 408.5,214.5C 407.681,211.695 407.181,208.695 407,205.5C 406.171,174.262 406.338,143.095 407.5,112C 411,111.833 414.5,111.667 418,111.5C 421.931,111.544 425.598,112.211 429,113.5C 429.5,146.498 429.667,179.498 429.5,212.5 Z"/></g>
<g><path style="opacity:1" fill="#dc4651" d="M 476.5,111.5 C 476.5,145.5 476.5,179.5 476.5,213.5C 476.167,213.5 475.833,213.5 475.5,213.5C 475.5,180.167 475.5,146.833 475.5,113.5C 468.833,113.5 462.167,113.5 455.5,113.5C 455.832,146.004 455.498,178.338 454.5,210.5C 454.333,177.832 454.5,145.165 455,112.5C 462.079,111.52 469.245,111.187 476.5,111.5 Z"/></g>
<g><path style="opacity:1" fill="#d54c55" d="M 133.5,113.5 C 125.561,112.409 117.561,112.409 109.5,113.5C 109.876,118.273 108.876,122.607 106.5,126.5C 106.951,121.531 107.951,116.698 109.5,112C 113.5,111.833 117.5,111.667 121.5,111.5C 125.893,111.509 129.893,112.176 133.5,113.5 Z"/></g>
<g><path style="opacity:0.907" fill="#c6545a" d="M 188.5,112.5 C 181.91,112.189 175.41,112.522 169,113.5C 168.333,154.833 168.333,196.167 169,237.5C 175.41,238.478 181.91,238.811 188.5,238.5C 181.687,239.491 174.687,239.825 167.5,239.5C 167.5,196.833 167.5,154.167 167.5,111.5C 174.687,111.175 181.687,111.509 188.5,112.5 Z"/></g>
<g><path style="opacity:1" fill="#fb404c" d="M 395.5,225.5 C 396.038,229.524 396.705,233.524 397.5,237.5C 390.833,237.5 384.167,237.5 377.5,237.5C 372.273,220.977 367.106,204.31 362,187.5C 361.626,186.584 361.126,185.75 360.5,185C 357.304,184.195 354.304,184.362 351.5,185.5C 350.522,185.811 349.855,186.478 349.5,187.5C 350.028,189.336 350.694,191.003 351.5,192.5C 351.737,193.791 351.404,194.791 350.5,195.5C 349.501,209.087 349.168,223.421 349.5,238.5C 342.833,238.5 336.167,238.5 329.5,238.5C 328.169,196.333 328.169,154.167 329.5,112C 344.167,111.333 358.833,111.333 373.5,112C 387.152,115.656 395.319,124.489 398,138.5C 400.485,150.962 398.485,162.629 392,173.5C 388.958,176.933 385.458,179.766 381.5,182C 386.872,196.281 391.538,210.781 395.5,225.5 Z M 351.5,130.5 C 371.41,127.913 379.577,136.58 376,156.5C 374.567,161.598 371.4,165.098 366.5,167C 361.511,167.499 356.511,167.666 351.5,167.5C 350.341,155.295 350.341,142.962 351.5,130.5 Z"/></g>
<g><path style="opacity:0.673" fill="#bd484f" d="M 56.5,111.5 C 63.5,111.5 70.5,111.5 77.5,111.5C 77.8317,146.004 77.4983,180.337 76.5,214.5C 76.5,180.5 76.5,146.5 76.5,112.5C 69.6457,112.824 62.979,112.491 56.5,111.5 Z"/></g>
<g><path style="opacity:1" fill="#fb404c" d="M 188.5,112.5 C 189.332,129.328 189.832,146.328 190,163.5C 195.608,152.611 201.441,141.944 207.5,131.5C 209.017,131.489 210.184,130.823 211,129.5C 211.023,124.988 213.023,121.988 217,120.5C 216.426,118.224 216.592,115.891 217.5,113.5C 220.518,113.335 223.518,113.502 226.5,114C 228.839,116.269 228.172,117.769 224.5,118.5C 226.063,121.222 226.729,124.222 226.5,127.5C 226.638,130.883 225.638,133.717 223.5,136C 224.291,138.75 224.291,141.583 223.5,144.5C 219.892,151.8 216.225,159.133 212.5,166.5C 222.399,188.96 231.732,211.626 240.5,234.5C 240.5,235.5 240.5,236.5 240.5,237.5C 233.5,237.5 226.5,237.5 219.5,237.5C 219.88,233.606 218.546,230.606 215.5,228.5C 209.261,214.309 203.094,199.975 197,185.5C 194.667,189.167 192.333,192.833 190,196.5C 189.831,210.673 189.331,224.673 188.5,238.5C 181.91,238.811 175.41,238.478 169,237.5C 168.333,196.167 168.333,154.833 169,113.5C 175.41,112.522 181.91,112.189 188.5,112.5 Z"/></g>
<g><path style="opacity:1" fill="#fb404c" d="M 133.5,113.5 C 142.657,152.941 151.324,192.608 159.5,232.5C 159.5,234.167 159.5,235.833 159.5,237.5C 152.833,237.5 146.167,237.5 139.5,237.5C 139.124,231.118 138.291,224.784 137,218.5C 136.329,217.748 135.496,217.414 134.5,217.5C 125.014,216.506 115.348,216.173 105.5,216.5C 104.833,223.167 104.167,229.833 103.5,236.5C 96.9221,237.46 90.2554,237.793 83.5,237.5C 84.9031,232.609 85.5698,227.609 85.5,222.5C 85.5399,219.012 86.2066,215.679 87.5,212.5C 90.7114,204.167 93.2114,195.501 95,186.5C 95.9246,185.953 96.7579,185.287 97.5,184.5C 98.123,181.833 99.123,179.333 100.5,177C 98.0777,175.112 98.0777,173.112 100.5,171C 99.8778,169.431 99.5445,167.764 99.5,166C 100.933,160.603 101.6,155.103 101.5,149.5C 102.548,141.584 104.215,133.917 106.5,126.5C 108.876,122.607 109.876,118.273 109.5,113.5C 117.561,112.409 125.561,112.409 133.5,113.5 Z M 120.5,142.5 C 124.594,161.325 128.261,180.658 131.5,200.5C 124.5,200.5 117.5,200.5 110.5,200.5C 114.049,181.205 117.383,161.871 120.5,142.5 Z"/></g>
<g><path style="opacity:1" fill="#f1434e" d="M 321.5,232.5 C 319.938,230.628 318.938,228.295 318.5,225.5C 317.105,226.815 316.105,226.481 315.5,224.5C 317.429,221.775 317.929,218.775 317,215.5C 314.456,209.477 312.956,203.144 312.5,196.5C 310.898,195.45 310.065,196.117 310,198.5C 307.939,195.872 305.439,195.205 302.5,196.5C 300.91,198.68 299.576,201.013 298.5,203.5C 296.844,201.978 295.677,202.311 295,204.5C 294.075,203.953 293.242,203.287 292.5,202.5C 285.679,201.833 279.012,201.167 272.5,200.5C 279.5,200.5 286.5,200.5 293.5,200.5C 290.628,183.476 287.628,166.476 284.5,149.5C 285.151,150.091 285.818,150.757 286.5,151.5C 288.079,160.534 289.913,169.534 292,178.5C 293.342,179.902 294.176,179.569 294.5,177.5C 294.113,175.726 293.447,174.059 292.5,172.5C 293.795,170.672 294.795,168.672 295.5,166.5C 296.396,169.144 297.229,171.81 298,174.5C 299,174.833 300,175.167 301,175.5C 299.39,180.396 301.223,182.396 306.5,181.5C 305.647,179.403 305.647,177.403 306.5,175.5C 304.934,171.729 303.601,167.896 302.5,164C 303.406,159.853 303.573,155.686 303,151.5C 300.806,145.399 299.306,139.065 298.5,132.5C 297.696,129.56 296.363,126.893 294.5,124.5C 295.757,121.177 295.757,117.844 294.5,114.5C 287.167,113.167 279.833,113.167 272.5,114.5C 270.222,120.271 269.055,126.271 269,132.5C 267.724,134.858 266.558,137.192 265.5,139.5C 267.057,130.214 269.057,121.048 271.5,112C 279.521,111.168 287.521,111.335 295.5,112.5C 304.551,152.421 313.217,192.421 321.5,232.5 Z"/></g>
<g><path style="opacity:1" fill="#ea4650" d="M 101.5,149.5 C 101.6,155.103 100.933,160.603 99.5,166C 99.5445,167.764 99.8778,169.431 100.5,171C 98.0777,173.112 98.0777,175.112 100.5,177C 99.123,179.333 98.123,181.833 97.5,184.5C 96.7579,185.287 95.9246,185.953 95,186.5C 93.2114,195.501 90.7114,204.167 87.5,212.5C 91.6761,191.274 96.3428,170.274 101.5,149.5 Z"/></g>
<g><path style="opacity:0.004" fill="#000000" d="M 324.5,177.5 C 325.833,178.167 325.833,178.167 324.5,177.5 Z"/></g>
<g><path style="opacity:0.004" fill="#000000" d="M 28.5,181.5 C 29.8333,182.167 29.8333,182.167 28.5,181.5 Z"/></g>
<g><path style="opacity:1" fill="#bb6064" d="M 351.5,185.5 C 351.5,187.833 351.5,190.167 351.5,192.5C 350.694,191.003 350.028,189.336 349.5,187.5C 349.855,186.478 350.522,185.811 351.5,185.5 Z"/></g>
<g><path style="opacity:1" fill="#fb3f4c" d="M 284.5,149.5 C 284.013,147.596 283.513,145.263 283,142.5C 279.39,161.827 275.89,181.16 272.5,200.5C 279.012,201.167 285.679,201.833 292.5,202.5C 293.242,203.287 294.075,203.953 295,204.5C 295.677,202.311 296.844,201.978 298.5,203.5C 299.576,201.013 300.91,198.68 302.5,196.5C 305.439,195.205 307.939,195.872 310,198.5C 310.065,196.117 310.898,195.45 312.5,196.5C 312.956,203.144 314.456,209.477 317,215.5C 317.929,218.775 317.429,221.775 315.5,224.5C 316.105,226.481 317.105,226.815 318.5,225.5C 318.938,228.295 319.938,230.628 321.5,232.5C 321.5,234.167 321.5,235.833 321.5,237.5C 314.833,237.5 308.167,237.5 301.5,237.5C 302.055,233.988 301.388,230.988 299.5,228.5C 298.385,224.954 297.385,221.288 296.5,217.5C 287.014,216.506 277.348,216.173 267.5,216.5C 267.5,219.5 267.5,222.5 267.5,225.5C 267.05,230.202 266.383,234.868 265.5,239.5C 258.167,239.5 250.833,239.5 243.5,239.5C 250.524,206.073 257.858,172.74 265.5,139.5C 266.558,137.192 267.724,134.858 269,132.5C 269.055,126.271 270.222,120.271 272.5,114.5C 279.833,113.167 287.167,113.167 294.5,114.5C 295.757,117.844 295.757,121.177 294.5,124.5C 296.363,126.893 297.696,129.56 298.5,132.5C 299.306,139.065 300.806,145.399 303,151.5C 303.573,155.686 303.406,159.853 302.5,164C 303.601,167.896 304.934,171.729 306.5,175.5C 305.647,177.403 305.647,179.403 306.5,181.5C 301.223,182.396 299.39,180.396 301,175.5C 300,175.167 299,174.833 298,174.5C 297.229,171.81 296.396,169.144 295.5,166.5C 294.795,168.672 293.795,170.672 292.5,172.5C 293.447,174.059 294.113,175.726 294.5,177.5C 294.176,179.569 293.342,179.902 292,178.5C 289.913,169.534 288.079,160.534 286.5,151.5C 285.818,150.757 285.151,150.091 284.5,149.5 Z"/></g>
<g><path style="opacity:1" fill="#fd3f4c" d="M 429.5,212.5 C 432.744,220.954 438.744,223.787 447.5,221C 451.221,218.383 453.554,214.883 454.5,210.5C 455.498,178.338 455.832,146.004 455.5,113.5C 462.167,113.5 468.833,113.5 475.5,113.5C 475.5,146.833 475.5,180.167 475.5,213.5C 473.164,227.161 465.497,236.161 452.5,240.5C 445.167,240.5 437.833,240.5 430.5,240.5C 418.481,235.813 411.148,227.147 408.5,214.5C 407.582,180.844 407.248,147.178 407.5,113.5C 414.167,113.5 420.833,113.5 427.5,113.5C 426.84,146.85 427.507,179.85 429.5,212.5 Z"/></g>
<g><path style="opacity:0.004" fill="#000000" d="M 430.5,188.5 C 431.833,189.167 431.833,189.167 430.5,188.5 Z"/></g>
<g><path style="opacity:0.004" fill="#000000" d="M 1.5,205.5 C 2.83333,206.167 2.83333,206.167 1.5,205.5 Z"/></g>
<g><path style="opacity:0.004" fill="#000000" d="M 162.5,208.5 C 163.833,209.167 163.833,209.167 162.5,208.5 Z"/></g>
<g><path style="opacity:1" fill="#dc4f5a" d="M 350.5,195.5 C 350.5,210.167 350.5,224.833 350.5,239.5C 343.313,239.825 336.313,239.491 329.5,238.5C 336.167,238.5 342.833,238.5 349.5,238.5C 349.168,223.421 349.501,209.087 350.5,195.5 Z"/></g>
<g><path style="opacity:1" fill="#e94450" d="M 31.5,214.5 C 29.7397,211.299 28.9064,207.633 29,203.5C 28.0853,204.328 27.4186,205.328 27,206.5C 26.6496,202.467 26.4829,198.633 26.5,195C 20.8431,194.501 15.1764,194.334 9.5,194.5C 9.41908,201.261 10.0857,207.928 11.5,214.5C 12.552,214.351 13.552,214.517 14.5,215C 13.0183,217.592 13.3517,219.925 15.5,222C 15.2155,223.956 15.2155,226.123 15.5,228.5C 11.2118,223.396 9.04512,217.396 9,210.5C 8.33333,204.833 8.33333,199.167 9,193.5C 9.5,193 10,192.5 10.5,192C 17.0816,191.19 23.5816,191.357 30,192.5C 30.3742,193.416 30.8742,194.25 31.5,195C 30.3804,201.357 30.3804,207.857 31.5,214.5 Z"/></g>
<g><path style="opacity:0.928" fill="#cb4f56" d="M 296.5,217.5 C 287.475,217.168 278.475,217.502 269.5,218.5C 268.933,220.982 268.266,223.316 267.5,225.5C 267.5,222.5 267.5,219.5 267.5,216.5C 277.348,216.173 287.014,216.506 296.5,217.5 Z"/></g>
<g><path style="opacity:1" fill="#cf4b54" d="M 134.5,217.5 C 125.475,217.168 116.475,217.502 107.5,218.5C 106.273,224.646 104.94,230.646 103.5,236.5C 104.167,229.833 104.833,223.167 105.5,216.5C 115.348,216.173 125.014,216.506 134.5,217.5 Z"/></g>
<g><path style="opacity:1" fill="#dc4956" d="M 134.5,217.5 C 135.496,217.414 136.329,217.748 137,218.5C 138.291,224.784 139.124,231.118 139.5,237.5C 146.167,237.5 152.833,237.5 159.5,237.5C 159.5,235.833 159.5,234.167 159.5,232.5C 160.468,234.607 160.802,236.941 160.5,239.5C 153.492,239.666 146.492,239.5 139.5,239C 137.769,231.847 136.103,224.68 134.5,217.5 Z"/></g>
<g><path style="opacity:1" fill="#dc4b53" d="M 85.5,222.5 C 85.5698,227.609 84.9031,232.609 83.5,237.5C 90.2554,237.793 96.9221,237.46 103.5,236.5C 103.5,237.5 103.5,238.5 103.5,239.5C 99.6286,239.185 95.9619,239.518 92.5,240.5C 92.1667,240.5 91.8333,240.5 91.5,240.5C 88.3752,239.521 85.0419,239.187 81.5,239.5C 82.3424,233.602 83.6758,227.935 85.5,222.5 Z"/></g>
<g><path style="opacity:1" fill="#df4c53" d="M 215.5,228.5 C 218.546,230.606 219.88,233.606 219.5,237.5C 226.5,237.5 233.5,237.5 240.5,237.5C 240.5,236.5 240.5,235.5 240.5,234.5C 241.931,235.78 242.598,237.447 242.5,239.5C 234.826,239.666 227.159,239.5 219.5,239C 217.67,235.676 216.337,232.176 215.5,228.5 Z"/></g>
<g><path style="opacity:1" fill="#df4a58" d="M 299.5,228.5 C 301.388,230.988 302.055,233.988 301.5,237.5C 308.167,237.5 314.833,237.5 321.5,237.5C 321.5,235.833 321.5,234.167 321.5,232.5C 322.468,234.607 322.802,236.941 322.5,239.5C 315.492,239.666 308.492,239.5 301.5,239C 300.029,235.679 299.363,232.179 299.5,228.5 Z"/></g>
<g><path style="opacity:1" fill="#e24a58" d="M 395.5,225.5 C 397.816,229.794 399.15,234.46 399.5,239.5C 391.757,240.13 384.424,239.463 377.5,237.5C 384.167,237.5 390.833,237.5 397.5,237.5C 396.705,233.524 396.038,229.524 395.5,225.5 Z"/></g>
<g><path style="opacity:0.004" fill="#000000" d="M 122.5,240.5 C 121.833,239.167 121.833,239.167 122.5,240.5 Z"/></g>
</svg>
